<svg xmlns="http://www.w3.org/2000/svg" 
    xmlns:xlink="http://www.w3.org/1999/xlink" version="1.1" x="0px" y="0px" viewBox="0 0 64 80" style="enable-background:new 0 0 64 64;" xml:space="preserve">
    <path d="M59,39v8c0,1.654-1.346,3-3,3h-3.909l-0.361-1H53c2.757,0,5-2.243,5-5V34c0-1.789-0.953-3.35-2.37-4.234  C57.067,28.669,58,26.944,58,25c0-3.309-2.691-6-6-6s-6,2.691-6,6c0,1.759,0.765,3.339,1.975,4.437  c-1.073,0.478-1.935,1.326-2.451,2.378L42.94,24.66C42.797,24.264,42.421,24,42,24h-2v-5c0-2.849-1.714-5.302-4.162-6.393  C37.158,11.505,38,9.85,38,8c0-3.309-2.691-6-6-6s-6,2.691-6,6c0,1.85,0.842,3.505,2.162,4.607C25.714,13.698,24,16.151,24,19v5h-2  c-0.421,0-0.797,0.264-0.94,0.66l-2.584,7.155c-0.516-1.052-1.378-1.9-2.451-2.378C17.235,28.339,18,26.759,18,25  c0-3.309-2.691-6-6-6s-6,2.691-6,6c0,1.944,0.933,3.669,2.37,4.766C6.953,30.65,6,32.211,6,34v10c0,2.757,2.243,5,5,5h1.27l-0.361,1  H8c-1.654,0-3-1.346-3-3v-8c0-0.552-0.448-1-1-1H1v2h2v7c0,2.757,2.243,5,5,5h3.187L8.06,60.66  c-0.111,0.307-0.065,0.648,0.122,0.915C8.369,61.841,8.674,62,9,62h46c0.326,0,0.631-0.159,0.818-0.425  c0.188-0.267,0.233-0.608,0.122-0.915L52.813,52H56c2.757,0,5-2.243,5-5v-7h2v-2h-3C59.448,38,59,38.448,59,39z M56,25  c0,0.557-0.116,1.088-0.323,1.57c-0.558-2.231-1.864-4.19-3.711-5.567C51.978,21.003,51.988,21,52,21C54.206,21,56,22.794,56,25z   M49.555,21.857c2.549,1.273,4.215,3.772,4.405,6.608C53.378,28.796,52.716,29,52,29c-2.206,0-4-1.794-4-4  C48,23.719,48.616,22.59,49.555,21.857z M47,34c0-1.654,1.346-3,3-3h3c1.654,0,3,1.346,3,3v10c0,1.654-1.346,3-3,3h-1.992L47,35.902  V34z M32.952,17.86L32,19.764l-0.952-1.904L31.82,14h0.36L32.952,17.86z M32,4c1.314,0,2.472,0.645,3.201,1.626  c-2.086,0.489-4.317,0.489-6.403,0C29.528,4.645,30.686,4,32,4z M28.05,7.501C29.328,7.829,30.651,8,32,8s2.672-0.171,3.95-0.499  C35.97,7.666,36,7.829,36,8c0,2.206-1.794,4-4,4s-4-1.794-4-4C28,7.829,28.03,7.666,28.05,7.501z M26,19  c0-2.321,1.597-4.26,3.744-4.821l-0.725,3.624c-0.044,0.218-0.013,0.445,0.086,0.644l2,4C31.275,22.786,31.621,23,32,23  s0.725-0.214,0.895-0.553l2-4c0.099-0.199,0.13-0.425,0.086-0.644l-0.725-3.624C36.403,14.74,38,16.679,38,19v5H26V19z M12,29  c-0.716,0-1.378-0.204-1.96-0.535c0.19-2.836,1.856-5.335,4.405-6.608C15.384,22.59,16,23.719,16,25C16,27.206,14.206,29,12,29z   M12,21c0.012,0,0.022,0.003,0.034,0.003c-1.847,1.376-3.153,3.336-3.711,5.567C8.116,26.088,8,25.557,8,25C8,22.794,9.794,21,12,21  z M11,47c-1.654,0-3-1.346-3-3V34c0-1.654,1.346-3,3-3h3c1.654,0,3,1.346,3,3v1.902L12.992,47H11z M10.424,60l12.278-34H25h14h2.298  l12.278,34H10.424z"/>
    <path d="M38.043,40.71c-0.107,0.353-0.011,0.736,0.25,0.997l1.199,1.199l-7.483,5.821l-4.384-3.507  c-0.325-0.261-0.781-0.292-1.139-0.077l-10,6l1.029,1.715l9.404-5.642l4.457,3.565c0.36,0.289,0.873,0.292,1.238,0.009l8.303-6.458  l1.376,1.376C42.483,45.897,42.739,46,43,46c0.097,0,0.194-0.014,0.29-0.043c0.353-0.107,0.619-0.399,0.691-0.761l1-5  c0.066-0.328-0.037-0.667-0.273-0.903c-0.237-0.236-0.574-0.338-0.903-0.273l-5,1C38.442,40.092,38.15,40.357,38.043,40.71z   M42.725,41.275l-0.339,1.697l-1.357-1.357L42.725,41.275z"/>
    <rect x="40" y="48" width="2" height="11"/>
    <rect x="36" y="51" width="2" height="8"/>
    <rect x="32" y="53" width="2" height="6"/>
    <rect x="28" y="51" width="2" height="8"/>
    <rect x="24" y="51" width="2" height="8"/>
    <rect x="20" y="53" width="2" height="6"/>
    <path d="M23,34h5c0.552,0,1-0.448,1-1v-5c0-0.552-0.448-1-1-1c-3.309,0-6,2.691-6,6C22,33.552,22.448,34,23,34z M27,29.126V32  h-2.874C24.489,30.596,25.596,29.489,27,29.126z"/>
    <path d="M25,36c0,3.309,2.691,6,6,6s6-2.691,6-6s-2.691-6-6-6c-0.552,0-1,0.448-1,1v4h-4C25.448,35,25,35.448,25,36z M31,37  c0.552,0,1-0.448,1-1v-3.874c1.723,0.445,3,2.013,3,3.874c0,2.206-1.794,4-4,4c-1.86,0-3.428-1.277-3.874-3H31z"/>
</svg>