<svg xmlns="http://www.w3.org/2000/svg" 
    xmlns:xlink="http://www.w3.org/1999/xlink" version="1.1" x="0px" y="0px" viewBox="0 0 64 110" style="enable-background:new 0 0 64 88;" xml:space="preserve">
    <path d="M63,0H1C0.448,0,0,0.448,0,1v86c0,0.552,0.448,1,1,1h62c0.552,0,1-0.448,1-1V1C64,0.448,63.552,0,63,0z M62,86H2V2h60V86z"/>
    <path d="M12,52c1.584,0,2.94-0.928,3.588-2.263l9.431,1.886C25.012,51.749,25,51.873,25,52c0,1.929,0.781,3.676,2.043,4.942  l-6.155,8.207C20.606,65.061,20.312,65,20,65c-1.657,0-3,1.343-3,3s1.343,3,3,3s3-1.343,3-3c0-0.615-0.186-1.186-0.504-1.662  l6.147-8.195C29.64,58.689,30.783,59,32,59c1.294,0,2.503-0.358,3.543-0.97l9.265,11.582C44.307,70.28,44,71.101,44,72  c0,2.209,1.791,4,4,4s4-1.791,4-4s-1.791-4-4-4c-0.584,0-1.134,0.131-1.634,0.356l-9.262-11.577C38.277,55.528,39,53.85,39,52  c0-0.567-0.075-1.115-0.202-1.642l9.989-3.995C49.515,47.351,50.678,48,52,48c2.209,0,4-1.791,4-4s-1.791-4-4-4s-4,1.791-4,4  c0,0.172,0.03,0.336,0.051,0.503L38.056,48.5c-0.864-1.492-2.259-2.637-3.931-3.17l2.228-13.366C38.394,31.783,40,30.088,40,28  c0-2.209-1.791-4-4-4s-4,1.791-4,4c0,1.63,0.979,3.027,2.378,3.65l-2.226,13.357C32.101,45.007,32.051,45,32,45  c-0.77,0-1.509,0.129-2.202,0.359l-3.64-7.281C26.677,37.539,27,36.808,27,36c0-1.657-1.343-3-3-3s-3,1.343-3,3s1.343,3,3,3  c0.125,0,0.243-0.022,0.364-0.037l3.645,7.29c-1.19,0.828-2.107,2.018-2.6,3.409l-9.431-1.886C15.859,45.673,14.132,44,12,44  c-2.209,0-4,1.791-4,4S9.791,52,12,52z"/>
    <rect x="8" y="7" width="24" height="2"/>
    <rect x="8" y="11.5" width="16" height="1"/>
</svg>