<svg xmlns:dc="http://purl.org/dc/elements/1.1/" 
    xmlns:cc="http://creativecommons.org/ns#" 
    xmlns:rdf="http://www.w3.org/1999/02/22-rdf-syntax-ns#" 
    xmlns:svg="http://www.w3.org/2000/svg" 
    xmlns="http://www.w3.org/2000/svg" 
    xmlns:sodipodi="http://sodipodi.sourceforge.net/DTD/sodipodi-0.dtd" 
    xmlns:inkscape="http://www.inkscape.org/namespaces/inkscape" version="1.1" x="0px" y="0px" viewBox="0 0 128 160" enable-background="new 0 0 128 128" xml:space="preserve">
    <path d="M 34 2.8007812 C 25 2.8007812 17.800781 10 17.800781 19 L 17.800781 109 C 17.800781 118 25.1 125.19922 34 125.19922 L 94 125.19922 C 103 125.19922 110.19922 117.9 110.19922 109 L 110.19922 34 L 110.19922 33.900391 L 110.19922 33.599609 L 110.19922 33.5 C 110.09922 33.4 110.1 33.199609 110 33.099609 L 80 3.0996094 C 79.9 2.9996094 79.799609 2.9003906 79.599609 2.9003906 L 79.5 2.9003906 C 79.4 2.9003906 79.299219 2.8007813 79.199219 2.8007812 L 79.099609 2.8007812 L 34 2.8007812 z M 34 5.1992188 L 77.800781 5.1992188 L 77.800781 19 C 77.800781 28 85.1 35.199219 94 35.199219 L 107.80078 35.199219 L 107.80078 109 C 107.80078 116.6 101.6 122.80078 94 122.80078 L 34 122.80078 C 26.4 122.80078 20.199219 116.6 20.199219 109 L 20.199219 19 C 20.199219 11.4 26.4 5.1992187 34 5.1992188 z M 41.699219 49.300781 C 40.899219 49.300781 40.400391 49.700391 40.400391 50.400391 L 40.400391 70.5 C 40.400391 71.3 40.899219 71.599609 41.699219 71.599609 C 42.399219 71.599609 42.900391 71.2 42.900391 70.5 L 42.900391 62.599609 C 42.900391 61.499609 43.200391 60.699219 43.900391 59.699219 C 44.800391 58.499219 46.099219 57.699219 47.699219 57.699219 C 49.799219 57.699219 50.800781 59.000391 50.800781 61.400391 L 50.800781 70.400391 C 50.800781 71.200391 51.299609 71.5 52.099609 71.5 C 52.799609 71.5 53.400391 71.100391 53.400391 70.400391 L 53.400391 60.800781 C 53.400391 57.400781 51.599219 55.400391 48.199219 55.400391 C 45.199219 55.400391 43.699219 56.900391 42.699219 58.900391 C 42.799219 58.500391 42.900391 57.8 42.900391 57.5 L 42.900391 50.400391 C 42.900391 49.600391 42.399219 49.300781 41.699219 49.300781 z M 94.800781 49.300781 C 94.000781 49.200781 93.5 49.600391 93.5 50.400391 L 93.5 70.5 C 93.5 71.3 94.000781 71.599609 94.800781 71.599609 C 95.600781 71.599609 96.099609 71.2 96.099609 70.5 L 96.099609 50.400391 C 96.099609 49.600391 95.600781 49.300781 94.800781 49.300781 z M 60.300781 51.300781 C 59.500781 51.300781 59 51.700391 59 52.400391 L 59 55.800781 L 56.800781 55.800781 C 56.100781 55.800781 55.800781 56.300391 55.800781 56.900391 C 55.800781 57.600391 56.100781 58 56.800781 58 L 59 58 L 59 67.699219 C 59 70.699219 60.7 71.800781 63 71.800781 C 64.2 71.800781 65.000781 71.599219 65.800781 71.199219 C 66.200781 70.999219 66.400391 70.599219 66.400391 70.199219 C 66.400391 69.999219 66.400781 69.799609 66.300781 69.599609 C 66.200781 69.099609 65.800391 68.800781 65.400391 68.800781 C 65.200391 68.800781 65.100391 68.900391 64.900391 68.900391 C 64.400391 69.200391 63.899219 69.400391 63.199219 69.400391 C 62.199219 69.400391 61.599609 68.800391 61.599609 67.400391 L 61.599609 58 L 65.199219 58 C 65.899219 58 66.199219 57.500391 66.199219 56.900391 C 66.199219 56.200391 65.899219 55.800781 65.199219 55.800781 L 61.599609 55.800781 L 61.599609 52.400391 C 61.599609 51.700391 61.100781 51.300781 60.300781 51.300781 z M 75.800781 55.400391 C 73.000781 55.400391 71.799609 56.999609 71.099609 58.599609 C 71.199609 58.199609 71.300781 57.599219 71.300781 57.199219 L 71.300781 56.599609 C 71.300781 55.899609 70.799609 55.5 70.099609 55.5 C 69.299609 55.5 68.800781 55.899609 68.800781 56.599609 L 68.800781 70.400391 C 68.800781 71.200391 69.299609 71.5 70.099609 71.5 C 70.799609 71.5 71.300781 71.100391 71.300781 70.400391 L 71.300781 62.199219 C 71.300781 61.299219 71.599609 60.2 72.099609 59.5 C 72.799609 58.5 73.699219 57.599609 75.199219 57.599609 C 77.199219 57.599609 77.900391 59.000391 77.900391 61.400391 L 77.900391 70.400391 C 77.900391 71.200391 78.399219 71.5 79.199219 71.5 C 79.899219 71.5 80.5 71.100391 80.5 70.400391 L 80.5 62.099609 C 80.5 61.299609 80.800781 60.199609 81.300781 59.599609 C 82.000781 58.599609 83 57.699219 84.5 57.699219 C 86.5 57.699219 87.199219 59.1 87.199219 61.5 L 87.199219 70.5 C 87.199219 71.3 87.7 71.599609 88.5 71.599609 C 89.2 71.599609 89.800781 71.2 89.800781 70.5 L 89.800781 60.900391 C 89.600781 57.400391 88.3 55.400391 85 55.400391 C 81.9 55.400391 80.8 57 80 58.5 C 79.6 56.5 78.300781 55.400391 75.800781 55.400391 z M 34.099609 67.699219 C 32.999609 67.699219 32.199219 68.499609 32.199219 69.599609 C 32.199219 70.799609 32.999609 71.599609 34.099609 71.599609 C 35.199609 71.599609 36.099609 70.799609 36.099609 69.599609 C 35.999609 68.499609 35.199609 67.699219 34.099609 67.699219 z "/>
</svg>