<?xml version="1.0" standalone="no"?>
<!DOCTYPE svg PUBLIC "-//W3C//DTD SVG 20010904//EN"
 "http://www.w3.org/TR/2001/REC-SVG-20010904/DTD/svg10.dtd">
<svg version="1.0" xmlns="http://www.w3.org/2000/svg"
 width="700.000000pt" height="700.000000pt" viewBox="0 0 700.000000 700.000000"
 preserveAspectRatio="xMidYMid meet">
<metadata>
Created by potrace 1.11, written by Peter Selinger 2001-2013
</metadata>
<g transform="translate(0.000000,700.000000) scale(0.100000,-0.100000)"
fill="#000000" stroke="none">
<path d="M3447 6164 c-1 -1 -64 -4 -140 -8 -648 -29 -1235 -294 -1716 -775
-104 -104 -240 -264 -314 -368 -180 -256 -336 -599 -392 -863 -2 -8 -8 -35
-14 -60 -13 -57 -19 -94 -27 -150 -3 -25 -8 -54 -10 -65 -20 -102 -26 -489
-11 -665 5 -51 10 -96 12 -100 1 -3 6 -27 9 -55 4 -27 18 -102 32 -165 125
-561 434 -1051 922 -1458 387 -324 862 -526 1352 -577 137 -14 175 -15 325
-15 174 0 249 4 365 21 41 6 84 13 95 14 67 10 113 20 220 47 363 92 710 272
1020 529 54 44 301 293 352 354 242 290 421 629 514 974 34 128 34 124 54 241
27 160 38 289 39 464 0 123 -9 306 -19 354 -2 11 -6 47 -10 78 -3 32 -8 60
-10 63 -2 4 -6 26 -10 50 -31 211 -157 553 -288 784 -19 33 -179 271 -186 277
-3 3 -26 32 -50 64 -42 57 -293 315 -376 387 -191 167 -483 344 -721 438 -155
61 -394 128 -524 146 -14 2 -47 6 -75 10 -27 4 -59 9 -69 11 -11 2 -78 6 -150
10 -72 3 -146 7 -164 8 -18 1 -33 1 -35 0z m298 -228 c79 -10 297 -46 305 -51
4 -2 17 -6 31 -9 111 -21 315 -94 446 -159 265 -131 456 -270 678 -492 244
-244 416 -496 538 -790 40 -96 102 -287 112 -348 3 -15 12 -58 19 -95 8 -37
17 -91 21 -121 4 -30 9 -63 12 -75 13 -52 10 -486 -3 -596 -68 -552 -289
-1010 -681 -1408 -228 -231 -447 -390 -714 -516 -157 -74 -374 -148 -504 -172
-206 -38 -324 -49 -525 -49 -195 0 -292 7 -431 30 -555 95 -1012 354 -1419
805 -349 387 -556 868 -597 1389 -38 492 54 968 264 1357 193 359 493 688 843
921 322 216 696 346 1085 379 39 4 71 7 73 9 6 5 392 -3 447 -9z"/>
<path d="M3357 5714 c-1 -1 -40 -4 -87 -8 -450 -31 -898 -228 -1244 -546 -282
-259 -482 -552 -594 -872 -35 -99 -87 -307 -97 -388 -4 -30 -10 -64 -12 -75
-3 -11 -7 -119 -9 -240 -3 -204 5 -317 31 -455 4 -19 7 -53 6 -74 l-1 -39 53
8 c28 4 117 9 197 10 122 2 159 -1 236 -20 108 -27 185 -61 277 -122 62 -41
66 -46 50 -59 -10 -7 -21 -14 -25 -14 -4 0 -30 -14 -57 -30 l-50 -31 -53 30
c-135 76 -304 107 -478 87 -70 -9 -90 -19 -90 -46 0 -24 19 -29 71 -19 69 13
207 10 284 -6 38 -8 103 -31 143 -50 l74 -35 -49 -41 c-26 -23 -56 -51 -65
-61 -17 -19 -18 -20 -70 -2 -71 24 -71 24 -163 28 -83 3 -135 -7 -135 -27 1
-29 18 -34 105 -34 56 0 111 -6 147 -16 l57 -17 -43 -63 c-43 -60 -110 -186
-104 -192 2 -2 30 -6 63 -9 145 -16 276 -63 391 -140 l65 -44 -68 -38 c-37
-22 -72 -41 -76 -43 -5 -2 -23 5 -42 14 -18 10 -40 15 -49 12 -26 -10 -19 -45
13 -61 16 -9 31 -22 34 -31 9 -22 31 -18 80 15 69 46 183 97 272 120 90 24
284 34 375 19 30 -5 70 -11 89 -14 76 -12 239 -89 326 -155 160 -119 273 -281
335 -480 27 -84 27 -85 61 -86 43 -2 55 8 64 53 13 73 69 206 114 276 141 215
376 376 611 420 81 15 275 17 340 3 99 -21 176 -47 247 -81 89 -44 126 -45
116 -5 -4 14 -32 33 -85 59 l-80 39 45 31 c42 29 179 101 191 101 4 0 26 9 50
20 24 12 65 26 92 33 42 10 49 15 49 37 0 21 -4 25 -30 24 -16 0 -46 -4 -66
-8 -33 -7 -38 -5 -57 25 -34 54 -141 157 -214 205 -129 86 -257 124 -424 124
-244 0 -486 -124 -619 -319 -27 -39 -53 -71 -59 -71 -6 0 -35 7 -64 14 -62 17
-58 16 -76 16 -23 0 38 100 116 190 349 405 940 435 1351 68 20 -19 37 -37 37
-41 0 -5 14 -22 30 -40 17 -18 45 -54 62 -80 23 -36 36 -47 52 -45 34 5 30 40
-11 93 -20 28 -41 52 -45 53 -32 14 49 46 141 56 49 6 65 21 50 48 -12 22 -75
18 -170 -12 -73 -22 -67 -24 -159 59 l-55 50 66 30 c85 40 186 61 308 64 95 2
96 2 96 27 0 21 -6 26 -36 30 -112 19 -290 -14 -411 -74 l-83 -42 -77 35 c-42
20 -77 39 -78 43 -1 14 153 105 240 142 44 18 139 42 205 52 56 8 215 9 257 1
35 -7 42 4 44 73 2 30 5 65 8 78 26 117 27 442 1 642 -77 590 -432 1144 -960
1497 -218 146 -478 256 -705 299 -14 2 -34 6 -46 9 -12 3 -39 7 -60 10 -21 3
-48 7 -59 10 -52 11 -418 27 -428 19z m308 -39 c109 -8 256 -31 345 -54 379
-98 695 -283 985 -577 314 -319 505 -686 580 -1114 35 -199 39 -494 9 -690 -3
-19 -7 -49 -10 -66 l-4 -31 -128 0 c-237 -1 -444 -70 -614 -205 l-38 -30 -85
17 c-157 31 -312 26 -474 -15 l-73 -19 -49 39 c-320 253 -828 257 -1165 10
-58 -43 -74 -50 -99 -45 -191 40 -347 39 -525 -3 l-75 -18 -65 47 c-198 144
-452 206 -705 173 -97 -13 -88 -21 -109 96 -27 158 -28 560 0 715 81 459 266
817 589 1141 205 206 349 311 590 432 134 67 334 136 454 157 19 3 37 8 41 10
3 2 33 7 65 10 33 4 63 9 66 11 3 2 55 6 115 10 60 4 110 8 112 9 4 3 183 -3
267 -10z m140 -2656 c39 -12 93 -33 120 -46 70 -36 167 -105 158 -113 -4 -4
-38 -23 -74 -42 l-66 -36 -50 29 c-129 75 -288 105 -455 87 -79 -8 -81 -9
-148 -27 -45 -13 -158 -65 -174 -81 -10 -10 -166 61 -162 75 4 16 94 74 172
110 106 51 205 75 329 82 61 3 111 7 113 8 7 6 175 -27 237 -46z m-1041 -170
c129 -23 305 -108 412 -198 76 -64 128 -122 191 -215 l42 -61 -57 -11 c-31 -6
-69 -14 -83 -18 -21 -6 -29 -3 -41 16 -58 88 -192 205 -295 257 -126 64 -186
77 -368 75 -144 -1 -209 -17 -335 -80 -105 -53 -224 -159 -280 -248 -21 -33
-40 -54 -48 -51 -7 2 -42 10 -77 17 -39 7 -65 16 -65 24 0 26 107 172 176 240
120 118 290 216 425 243 136 28 283 32 403 10z m856 -13 c72 -7 120 -21 203
-59 l69 -31 -67 -62 -66 -62 -62 20 c-90 29 -230 28 -324 0 l-71 -22 -39 36
c-21 20 -53 48 -71 62 -32 24 -32 25 -12 39 37 26 136 61 207 72 115 19 111
19 233 7z m1027 -182 c162 -33 328 -140 428 -277 l27 -37 -38 -15 c-22 -9 -56
-25 -78 -37 l-38 -21 -43 46 c-58 62 -167 130 -245 152 -95 27 -236 25 -319
-4 -109 -38 -225 -122 -272 -198 l-20 -32 -80 40 c-43 23 -79 45 -79 49 0 18
91 129 144 177 45 40 211 139 236 141 3 0 23 5 45 10 95 25 229 27 332 6z
m-1853 -44 c140 -44 253 -123 350 -242 l38 -47 -40 -16 c-22 -9 -55 -24 -73
-34 l-34 -18 -71 66 c-79 74 -148 112 -244 137 -120 31 -292 5 -406 -61 -47
-28 -160 -138 -169 -165 -5 -17 -13 -15 -85 21 -44 23 -80 43 -80 45 0 14 57
86 113 142 94 97 236 171 362 191 92 14 264 4 339 -19z m831 -14 c25 -4 56
-12 69 -17 l24 -11 -35 -46 c-19 -25 -45 -67 -59 -94 l-24 -48 -64 0 -64 0
-28 48 c-15 26 -43 68 -62 94 l-34 48 28 10 c62 24 148 29 249 16z m1040 -198
c68 -23 173 -94 205 -138 12 -17 17 -30 12 -30 -4 0 -27 -16 -49 -35 l-41 -34
-73 16 c-51 12 -121 17 -229 17 -130 0 -169 -3 -243 -22 l-87 -23 -30 23 c-16
13 -29 26 -29 30 -1 3 22 31 50 62 76 83 194 147 294 159 58 7 161 -5 220 -25z
m-1915 -15 c31 -11 73 -31 95 -46 44 -28 125 -103 125 -115 0 -4 -22 -24 -48
-44 l-48 -36 -85 19 c-115 25 -337 20 -459 -10 -83 -21 -85 -21 -110 -3 -14
11 -26 26 -28 35 -5 24 117 141 178 171 117 57 269 69 380 29z m1002 -92 c42
-11 112 -37 155 -59 83 -40 183 -101 183 -111 0 -3 -33 -24 -73 -46 l-72 -40
-52 31 c-48 29 -149 67 -213 80 -14 3 -72 7 -130 10 -133 7 -256 -18 -371 -75
l-80 -40 -74 37 c-41 20 -75 40 -75 43 0 11 122 86 185 114 33 15 72 27 88 27
15 0 27 3 27 7 0 11 75 30 148 37 31 4 59 8 61 10 12 11 226 -8 293 -25z m-62
-211 c30 -7 88 -27 129 -46 l74 -34 -64 -60 c-45 -42 -70 -59 -84 -56 -11 3
-45 12 -75 21 -84 25 -212 22 -297 -7 l-70 -23 -72 66 -72 67 74 30 c40 17
100 37 133 45 70 16 244 15 324 -3z m-29 -236 l57 -16 -52 -82 c-50 -77 -105
-197 -120 -260 -7 -28 -9 -26 -30 35 -30 86 -68 160 -122 237 -25 35 -43 66
-40 69 2 3 26 11 53 18 67 18 186 18 254 -1z"/>
<path d="M4428 1985 c-2 -2 -25 -6 -53 -9 -101 -11 -269 -87 -363 -164 -74
-60 -160 -171 -208 -266 -45 -90 -55 -140 -30 -149 21 -8 41 13 61 67 68 185
237 351 430 421 150 54 304 52 477 -5 85 -29 118 -30 118 -6 0 21 -15 32 -70
53 -71 28 -114 40 -170 49 -48 7 -187 14 -192 9z"/>
<path d="M2504 1958 c-99 -8 -182 -32 -276 -79 -65 -33 -81 -55 -54 -75 16
-11 28 -8 85 21 115 58 155 67 296 71 152 4 236 -14 350 -71 157 -79 302 -246
354 -407 14 -41 34 -54 55 -33 12 12 12 21 1 58 -54 179 -228 370 -417 456
-61 28 -147 49 -222 57 -34 3 -65 6 -71 8 -5 1 -51 -1 -101 -6z"/>
<path d="M4468 1745 c-2 -2 -23 -6 -48 -9 -106 -14 -212 -68 -293 -150 -67
-68 -85 -100 -67 -121 17 -20 27 -19 48 6 56 70 81 95 131 129 91 61 214 93
309 79 31 -4 48 -1 58 8 17 18 8 42 -20 48 -29 6 -114 14 -118 10z"/>
<path d="M2578 1725 c-2 -2 -28 -5 -58 -8 -114 -12 -151 -35 -116 -70 13 -12
22 -12 68 0 193 51 407 -29 523 -197 30 -44 49 -50 64 -22 21 40 -106 179
-212 234 -51 25 -113 47 -154 54 -40 6 -112 12 -115 9z"/>
</g>
</svg>
